<mxfile host="app.diagrams.net" modified="2023-07-27T02:58:45.265Z" agent="Mozilla/5.0 (Windows NT 10.0; Win64; x64) AppleWebKit/537.36 (KHTML, like Gecko) Chrome/114.0.0.0 Safari/537.36" version="21.6.2" etag="sn_sLGrR8I_0DyHFjnuh" type="github">
  <diagram name="Page-1" id="HIoLaM3ILLYxEW8j7OVv">
    <mxGraphModel>
      <root>
        <mxCell id="0" />
        <mxCell id="1" parent="0" />
      </root>
    </mxGraphModel>
  </diagram>
</mxfile>
